<svg id="enjoyableLogo" width="430" height="155" viewBox="0 0 430 155" class="logosvg">
  <g id="logoText">
    <text transform="translate(161.48 75.997)" fill="#B7433D" stroke="#B7433D" font-family="'ErasITC-Light'" font-size="36">Enjoyable Recipes</text>
    <g id="simple_delish_bong">
      <text transform="translate(336.65 109.633)" fill="#383819" font-family="'Candara'" font-size="26">bong</text>
      <text transform="translate(265.004 109.633)" fill="#DA5347" font-family="'Candara'" font-size="26">delish</text>
      <text transform="translate(187.65 109.633)" fill="#383819" font-family="'Candara'" font-size="26">simple</text>
    </g>
  </g>
  <circle opacity=".5" fill="#EEB188" cx="80.1" cy="77.6" r="69.7"/>
  <path fill="#601C02" d="M80.1 9.4c37.6 0 68.2 30.6 68.2 68.2s-30.6 68.2-68.2 68.2-68.2-30.6-68.2-68.2S42.5 9.4 80.1 9.4m0-1.5c-38.5 0-69.7 31.2-69.7 69.7s31.2 69.7 69.7 69.7 69.7-31.2 69.7-69.7S118.6 7.9 80.1 7.9z" opacity=".8"/>
  <g>
    <path fill="#EEB188" d="M128.4 56.8c-3.4-12-21.4-11.7-27.6-2.9-3.6-9.8-15.4-11.7-20.7-11.7-5.3 0-17.1 1.9-20.7 11.7-6.3-8.9-24.2-9.1-27.6 2.9-3.8 12.9 6.6 21.7 20 18.4v19.7h56.5V75.2c13.4 3.3 23.8-5.5 20.1-18.4z"/>
    <path fill="#FFFACB" d="M128.4 57.5c-3.4-12-21.4-11.7-27.6-2.9-3.6-9.8-15.4-11.7-20.7-11.7-5.3 0-17.1 1.9-20.7 11.7-6.3-8.9-24.2-9.1-27.6 2.9-1.2 4.3-.9 8.1.6 11.2-.5-2.4-.4-5.1.5-8.1 3.4-12 20.9-11.7 27-2.9 3.4-9.8 15-11.7 20.2-11.7 5.2 0 16.7 1.9 20.3 11.7 6.1-8.9 23.6-9.1 27 2.9.8 2.9.9 5.7.5 8.1 1.4-3.1 1.7-7 .5-11.2z"/>
    <path fill="#FFFEE9" d="M129 60.2c-.1 1.1-.3 2.2-.7 3.3-3.5 12-21.4 11.7-27.6 2.9-3.6 9.8-15.4 11.7-20.7 11.7-5.3 0-17.1-1.9-20.7-11.7-6.3 8.9-24.2 9.1-27.6-2.9-.3-1.1-.5-2.3-.7-3.3-1.2 11 8.5 18.1 20.7 15v19.7h56.5V75.2c12.3 3 22-4 20.8-15z"/>
    <path fill="#601C02" d="M59.3 102.2c-3.4 0-4.7 1.7-5.2 3.2-.1.4.1.9.5 1 .4.1.9-.1 1-.5.5-1.4 1.7-2.1 3.7-2 .4 0 .8-.4.8-.8 0-.5-.4-.9-.8-.9zM100.9 103.8c2 0 3.2.7 3.7 2 .1.4.6.7 1 .5.4-.1.7-.6.5-1-.5-1.4-1.8-3.2-5.2-3.2-.4 0-.8.4-.8.8 0 .6.3.9.8.9z"/>
    <path fill="#601C02" d="M56.6 104c1.2 5.2 5.5 17.4 21.1 18.5.8.1 1.5.1 2.3.1l2-.1c15.8-1 20.3-13.3 21.4-18.5.1-.4-.2-.9-.6-1-.4-.1-.9.2-1 .6-1.1 4.9-5.2 16.3-19.9 17.2l-2 .1c-.7 0-1.5 0-2.2-.1-14.5-1-18.6-12.4-19.6-17.2-.1-.4-.5-.7-1-.6-.3.1-.6.5-.5 1z"/>
    <ellipse fill="#601C02" cx="73" cy="103.4" rx="2.6" ry="3.3"/>
    <ellipse fill="#601C02" cx="87.1" cy="103.4" rx="2.6" ry="3.3"/>
    <path fill="#601C02" d="M129.2 56.6c-1.5-5.1-5.7-8.6-11.5-9.6-6.9-1.2-14.1 1.5-17.6 6.5.2-.2.5-.4.8-.3.3 0 .6.2.7.5C97.4 42.2 83 41.5 80.1 41.4c-2.9 0-17.2.7-21.5 12.3.1-.3.4-.5.7-.5.3 0 .6.1.8.3-3.5-5-10.8-7.6-17.6-6.5-5.8 1-10 4.5-11.5 9.6-1.7 6-.6 11.6 3.1 15.4 4.1 4.3 10.8 5.8 17.9 4-.2.1-.5 0-.7-.1-.2-.2-.3-.4-.3-.6V95c0 .4.4.8.8.8h56.5c.4 0 .8-.4.8-.8V75.2c0 .2-.1.5-.3.6-.2.2-.5.2-.7.1 7.1 1.8 13.8.3 17.9-4 3.8-3.7 4.9-9.3 3.2-15.3zm-21.7 18.6v19.7c0-.4.4-.8.8-.8H51.8c.4 0 .8.4.8.8V75.2c0-.3-.1-.5-.3-.6-.2-.2-.5-.2-.7-.1-6.5 1.6-12.7.3-16.4-3.6-3.3-3.4-4.3-8.3-2.7-13.8 1.3-4.5 5-7.6 10.2-8.5 6.3-1.1 12.8 1.3 16 5.8.2.2.5.4.8.3.3 0 .6-.2.7-.5 4-10.8 18.3-11.2 20-11.2 1.6 0 16 .5 19.9 11.2.1.3.4.5.7.5.3 0 .6-.1.8-.3 3.2-4.5 9.7-6.9 16-5.8 5.2.9 8.9 4 10.2 8.5 1.6 5.5.6 10.4-2.7 13.8-3.7 3.9-9.8 5.2-16.4 3.6-.2-.1-.5 0-.7.1-.4.1-.5.4-.5.6z"/>
  </g>
</svg>
